PathFileType	4	(X/Y/Z)	C:/Users/opensim2020/Desktop/walking_exp_matlab/subject06_cal10_run.trc																																																																																																																																																	
DataRate	CameraRate	NumFrames	NumMarkers	Units	OrigDataRate	OrigDataStartFrame	OrigNumFrames																																																																																																																																													
100	100	5	49	mm	100	183	118																																																																																																																																													
Frame#	Time	LKNE			RTIB			RFRM			RWRA			LTHI			RKNE			RELB			RFHD			LWRA			RUPA			STRN			RASI			CLAV			RSHO			LASI			RTHI			RBHD			LBHD			C7			RWRB			RFIN			RTOE			LSHO			RBAK			LTIB			RANK			LFIN			LANK			RHEE			T10			LHEE			LTOE			LFHD			LPSI			RPSI			LUPA			LELB			LFRM			LWRB			*39			*40			*41			*42			*43			*44			*45			*46			*47			*48		
		X1	Y1	Z1	X2	Y2	Z2	X3	Y3	Z3	X4	Y4	Z4	X5	Y5	Z5	X6	Y6	Z6	X7	Y7	Z7	X8	Y8	Z8	X9	Y9	Z9	X10	Y10	Z10	X11	Y11	Z11	X12	Y12	Z12	X13	Y13	Z13	X14	Y14	Z14	X15	Y15	Z15	X16	Y16	Z16	X17	Y17	Z17	X18	Y18	Z18	X19	Y19	Z19	X20	Y20	Z20	X21	Y21	Z21	X22	Y22	Z22	X23	Y23	Z23	X24	Y24	Z24	X25	Y25	Z25	X26	Y26	Z26	X27	Y27	Z27	X28	Y28	Z28	X29	Y29	Z29	X30	Y30	Z30	X31	Y31	Z31	X32	Y32	Z32	X33	Y33	Z33	X34	Y34	Z34	X35	Y35	Z35	X36	Y36	Z36	X37	Y37	Z37	X38	Y38	Z38	X39	Y39	Z39	X40	Y40	Z40	X41	Y41	Z41	X42	Y42	Z42	X43	Y43	Z43	X44	Y44	Z44	X45	Y45	Z45	X46	Y46	Z46	X47	Y47	Z47	X48	Y48	Z48	X49	Y49	Z49
																																																																																																																																																				
15	0.14	103.48278	499.54602	1742.78577	343.20554	370.53607	1359.42029	505.92883	1145.92334	1678.38574	451.58557	1058.89966	1576.38196	75.0201	649.56763	1668.79236	359.24277	625.07739	1321.91174	503.43628	1252.70203	1708.97754	320.02988	1614.53076	1324.41553	101.51254	1163.2644	1321.19702	467.84805	1334.98706	1634.77051	244.91292	1163.0531	1402.1156	339.17972	959.07465	1483.76794	246.71542	1345.09778	1393.34229	383.43954	1407.60266	1469.37915	127.28744	927.35321	1486.40222	390.5	715.74451	1404.92993	304.38803	1588.29431	1461.9353	175.5575	1592.01172	1449.81323	218.98338	1445.48096	1482.01672	488.50058	1024.84033	1620.21338	492.67688	993.61987	1547.54663	280.00189	122.46247	1273.23816	84.09676	1396.5155	1404.52722	266.27679	1308.83093	1602.28577	110.23753	314.99585	1924.14172	289.95892	193.40854	1409.77698	131.22409	1145.19397	1236.79883	147.17076	183.97015	2026.94653	245.63425	180.22952	1455.64612	208.40501	1139.26624	1604.05603	184.67107	218.15921	2058.18506	204.3403	40.6568	2011.08984	188.56772	1623.40063	1310.60071	142.23239	1000.90936	1626.15784	308.30206	1011.04614	1625.22778	-33.75248	1236.93323	1435.85938	-82.99436	1147.80835	1463.92773	-9.55865	1110.85632	1366.11597	82.23574	1100.73145	1295.99963							238.14468	-1407.69714	1679.37109																					 
16	0.15	102.84323	510.84763	1713.16589	343.11365	368.58209	1308.61475	502.39191	1155.45959	1645.07056	446.75717	1070.33264	1541.99719	74.7531	657.89209	1638.79285	358.87082	627.53711	1287.32727	501.13696	1261.17383	1677.30017	323.03888	1620.88757	1290.27051	106.00996	1179.49048	1288.13574	467.06998	1343.56921	1602.00073	245.87877	1172.12048	1364.48621	338.34607	966.10309	1446.33228	248.38857	1353.58936	1359.56628	384.46924	1414.66821	1435.92493	127.54839	934.80066	1447.23645	390.11395	718.43707	1370.59778	307.19431	1595.87878	1428.04724	178.35805	1600.24951	1415.81067	221.19327	1453.172	1448.22009	484.31406	1035.39099	1584.43652	487.32108	1004.84869	1510.74072	276.1564	120.94476	1202.5636	87.2375	1406.23779	1370.46362	265.53165	1317.39929	1566.70825	109.08336	326.87497	1894.66565	287.69467	187.98947	1342.91968	138.70398	1163.10938	1203.95703	145.43076	194.67915	2000.95642	243.18546	173.72212	1387.45544	207.00046	1146.71741	1566.74109	180.4541	233.22307	2025.39099	201.71182	51.25215	1992.13208	191.62379	1630.73547	1275.50793	140.75166	1008.12567	1585.96606	307.20206	1017.88959	1585.80933	-31.2343	1247.68945	1399.4032	-80.88147	1157.83789	1426.67273	-4.48643	1123.49915	1330.00647	89.18901	1116.97131	1261.17249							241.53824	-1372.89368	1686.9082																					 
17	0.16	101.81793	520.68762	1676.55359	343.09909	365.21466	1260.099	499.24332	1163.25964	1610.526	443.14664	1080.06799	1505.44653	73.15385	668.35974	1601.54126	358.44016	627.46826	1253.87561	499.00958	1267.78491	1644.65747	325.98111	1626.75586	1256.3772	110.00043	1194.01294	1255.25073	466.37869	1350.56409	1568.62512	245.07147	1177.78076	1329.15881	338.19223	971.26276	1409.99646	249.93388	1361.04065	1325.48669	385.68134	1420.59167	1402.08398	127.50229	941.78381	1408.75085	389.39685	718.58484	1336.61328	309.91159	1602.276	1394.18335	181.09996	1607.39978	1381.90125	223.33965	1459.45251	1414.61438	480.36264	1044.28418	1547.49268	482.54242	1014.81183	1473.1792	272.7027	119.1726	1135.10437	90.14889	1415.16724	1336.77625	265.23019	1324.51025	1531.27625	108.2558	336.75909	1862.3512	286.0885	182.79556	1278.92859	144.83012	1179.20251	1172.25293	143.04535	209.12035	1966.74963	241.28041	167.93994	1321.93115	206.37825	1153.74451	1529.47278	179.05078	246.49911	1993.02551	198.72922	61.51461	1972.41992	194.43036	1637.27441	1241.52588	139.85889	1014.79224	1546.54199	306.82352	1022.94189	1547.53723	-29.13728	1257.57068	1363.45288	-79.33648	1166.75708	1389.96899	-0.06664	1135.42627	1293.42334	95.34927	1131.02917	1227.30444							244.81642	-1338.68799	1693.44116																					 
18	0.17	101.13219	524.45386	1641.77283	342.39996	360.79745	1214.48462	496.51273	1169.19153	1574.84741	439.61749	1088.39722	1468.52917	71.62344	674.32751	1564.88074	358.28754	624.48785	1221.80859	497.40408	1272.53186	1611.13672	328.77307	1632.3324	1222.57422	113.16932	1205.97192	1222.68005	465.9519	1355.73572	1534.71863	245.92351	1184.53479	1291.95813	338.04535	975.18243	1373.01001	251.24742	1367.2948	1291.26038	387.27423	1425.31421	1367.7959	127.12789	947.93176	1370.57336	389.22314	716.29352	1303.26038	312.59177	1607.81689	1360.42346	183.79393	1613.63843	1348.11487	225.37117	1464.58582	1381.1095	476.86594	1051.46399	1509.53308	478.09811	1023.12213	1434.51135	269.59735	117.24219	1071.39343	92.5145	1422.85376	1303.43994	265.63492	1329.73865	1495.95044	107.3462	344.46872	1827.39185	285.03497	177.97873	1217.93506	150.49452	1192.97998	1140.69678	143.27403	220.50406	1937.04041	240.19014	163.21181	1259.84778	206.64171	1160.16846	1492.27087	180.14111	257.96689	1963.01685	197.40724	70.82523	1943.77466	197.24399	1643.52966	1207.70483	139.99181	1020.74463	1508.18311	306.66867	1026.48865	1510.44067	-27.33153	1266.03918	1328.26892	-78.00933	1174.26147	1353.69836	3.74409	1145.15234	1258.37891	100.77129	1143.12634	1194.00916							247.95372	-1304.97571	1699.3634																					 
19	0.18	99.90708	527.75537	1602.59155	341.52625	355.52469	1171.58997	494.36011	1173.25586	1538.37756	436.39371	1094.91016	1430.70435	70.70496	677.47107	1525.77295	358.06775	618.95197	1191.62769	496.41333	1275.26038	1576.71179	331.47409	1637.43799	1188.88879	115.80177	1216.27783	1190.41504	465.94946	1358.87341	1500.29956	245.76926	1189.68665	1255.39685	338.13092	977.96161	1336.13257	252.56062	1372.75317	1256.68762	389.19504	1428.94336	1333.18457	126.82001	953.27222	1332.60718	390.00366	712.25183	1270.30615	315.20807	1612.5769	1326.69568	186.45508	1619.04395	1314.42065	227.38487	1468.98779	1347.36328	473.72342	1056.82471	1470.67358	474.09448	1029.69043	1394.90063	267.33984	115.81513	1012.21277	94.26984	1429.61035	1269.61646	266.79431	1332.97131	1460.65894	106.47222	350.8132	1791.47791	284.26624	173.74062	1160.9375	155.43759	1204.53442	1109.32764	145.13591	229.10593	1908.90222	239.44678	159.38179	1201.91357	207.65201	1165.50354	1455.21716	181.42305	267.9212	1931.47913	197.18715	82.00031	1908.81653	199.99138	1649.37842	1174.21704	140.76341	1025.53577	1470.6604	306.70123	1028.59448	1473.5946	-25.95779	1273.04651	1292.85181	-77.28175	1180.64978	1317.51611	6.9733	1153.16504	1224.00146	105.25803	1153.27722	1161.22925							250.97345	-1271.58276	1704.61707																					 
